# xmcd
#
# Track frame offsets:
#	150
#	15536
#	29772
#	42276
#	56256
#	68601
#	84007
#	97926
#	111403
#	128223
#	140632
#	157910
#	169705
#	186184
#
# Disc length: 2653 seconds
#
# Revision: 0
# Processed by: cddbd v1.5.2PL0 Copyright (c) Steve Scherf et al.
# Submitted via: EasyCDDAExtractor 12.0.4.1
#
DISCID=ae0a5b0e
DTITLE=Amos Morris - Life Goes On
DYEAR=2009
DGENRE=Country
TTITLE0=Come My Brothers
TTITLE1=Coastal Cowboy
TTITLE2=Blue Days And Dark Nights
TTITLE3=Paradise
TTITLE4=Lismore Nights
TTITLE5=Life Goes On
TTITLE6=Wrong Side
TTITLE7=Whiteline Weary
TTITLE8=Open Space
TTITLE9=I Don't Hurt Anymore
TTITLE10=Reality
TTITLE11=Bone Dry
TTITLE12=Sailin' Away
TTITLE13=Don't Say Sorry
EXTD=
EXTT0=
EXTT1=
EXTT2=
EXTT3=
EXTT4=
EXTT5=
EXTT6=
EXTT7=
EXTT8=
EXTT9=
EXTT10=
EXTT11=
EXTT12=
EXTT13=
PLAYORDER=
